<?xml version="1.0" encoding="UTF-8" standalone="no"?>
<svg width="700px" height="250px" viewBox="0 0 103 34" version="1.1" xmlns="http://www.w3.org/2000/svg" xmlns:xlink="http://www.w3.org/1999/xlink">
    <!-- Generator: Sketch 47.1 (45422) - http://www.bohemiancoding.com/sketch -->
    <title>Kenza</title>
    <desc>Created with Sketch.</desc>
    <defs></defs>
    <g id="Page-1" stroke="none" stroke-width="1" fill="none" fill-rule="evenodd">
        <g id="Kenza" fill-rule="nonzero">
            <g id="Kenza-Logo" transform="translate(27.166667, 6.166667)" fill="#FFFFFF">
                <polygon id="Shape" points="0.113333333 0.0133333333 2.17333333 0.0133333333 2.17333333 12.6433333 9.59333333 6.18333333 12.5933333 6.18333333 3.83333333 13.8333333 13.1433333 22.2033333 10.2433333 22.2033333 2.18333333 15.0033333 2.18333333 22.2033333 0.113333333 22.2033333"></polygon>
                <path d="M26.2933333,16.8333333 L28.0333333,17.8333333 C27.533122,18.8454667 26.8557731,19.7598877 26.0333333,20.5333333 C25.3014516,21.2129887 24.4459963,21.7459509 23.5133333,22.1033333 C22.5020069,22.4755165 21.4308627,22.6585601 20.3533333,22.6433333 C18.028312,22.7638909 15.775196,21.8177295 14.2333333,20.0733333 C12.8045202,18.4799692 12.017121,16.4134916 12.0233333,14.2733333 C12.0081347,12.2947789 12.6796251,10.372196 13.9233333,8.83333333 C15.4256485,6.86502063 17.788717,5.74684942 20.2633333,5.83333333 C22.8093456,5.71342481 25.2564596,6.8308285 26.8333333,8.83333333 C28.0290198,10.4019063 28.6534491,12.3316397 28.6033333,14.3033333 L14.1733333,14.3033333 C14.148224,16.0004634 14.7869322,17.6402927 15.9533333,18.8733333 C17.0549153,20.0404364 18.5988163,20.6870584 20.2033333,20.6533333 C21.0159103,20.6525073 21.8218394,20.5068983 22.5833333,20.2233333 C23.3140895,19.9734687 23.9922078,19.5903319 24.5833333,19.0933333 C25.2621141,18.428845 25.8384053,17.667197 26.2933333,16.8333333 L26.2933333,16.8333333 Z M26.2933333,12.5233333 C26.0855669,11.5710879 25.6764033,10.6743376 25.0933333,9.89333333 C24.5332739,9.20859358 23.8210214,8.66413134 23.0133333,8.30333333 C22.1620305,7.90512735 21.2331603,7.70022952 20.2933333,7.70333333 C18.817586,7.68592442 17.3894327,8.22505227 16.2933333,9.21333333 C15.370181,10.1181289 14.7218768,11.265662 14.4233333,12.5233333 L26.2933333,12.5233333 Z" id="Shape"></path>
                <path d="M31.1933333,6.19333333 L33.2533333,6.19333333 L33.2533333,9.06333333 C33.9754619,8.0562151 34.9067198,7.21705966 35.9833333,6.60333333 C36.9829831,6.05823313 38.104746,5.7760719 39.2433333,5.78333333 C40.3702171,5.76387348 41.4773344,6.08069005 42.4233333,6.69333333 C43.3384148,7.28862017 44.05282,8.14590639 44.4733333,9.15333333 C44.9934337,10.7009949 45.2173377,12.3327801 45.1333333,13.9633333 L45.1333333,22.1933333 L43.0833333,22.1933333 L43.0833333,14.5533333 C43.1234011,13.308114 43.0396565,12.0619942 42.8333333,10.8333333 C42.6699665,9.90105722 42.1852412,9.05544159 41.4633333,8.44333333 C40.6979568,7.88050725 39.7622924,7.59804253 38.8133333,7.64333333 C37.5866514,7.63899856 36.3999965,8.07955304 35.4733333,8.88333333 C34.5117214,9.66757561 33.8280194,10.7404618 33.5233333,11.9433333 C33.2784179,13.379631 33.1812442,14.8372354 33.2333333,16.2933333 L33.2333333,22.1633333 L31.1933333,22.1633333 L31.1933333,6.19333333 Z" id="Shape"></path>
                <polygon id="Shape" points="47.0433333 6.19333333 58.8333333 6.19333333 49.7333333 20.3633333 58.4933333 20.3633333 58.4933333 22.1833333 46.1933333 22.1833333 55.1933333 7.99333333 46.9933333 7.99333333"></polygon>
                <path d="M75.8333333,6.19333333 L75.8333333,22.1933333 L73.8333333,22.1933333 L73.8333333,19.4333333 C73.0539745,20.4320222 72.0681828,21.2506728 70.9433333,21.8333333 C67.8004361,23.3361958 64.048865,22.6639722 61.6233333,20.1633333 C60.0417174,18.5722479 59.1753255,16.4062683 59.2233333,14.1633333 C59.1903877,11.9437936 60.0686557,9.80775896 61.6533333,8.25333333 C63.1721217,6.65532064 65.2889101,5.76365977 67.4933333,5.79333333 C68.7310033,5.77648035 69.9537429,6.06499195 71.0533333,6.63333333 C72.1622758,7.2384744 73.114301,8.09461222 73.8333333,9.13333333 L73.8333333,6.19333333 L75.8333333,6.19333333 Z M67.6033333,7.76333333 C65.3205955,7.74601621 63.2123953,8.98251981 62.1133333,10.9833333 C60.963475,12.9831635 60.963475,15.4435032 62.1133333,17.4433333 C62.6778385,18.4425154 63.5041512,19.2688281 64.5033333,19.8333333 C65.4525616,20.3996399 66.5380169,20.6969302 67.6433333,20.6933333 C68.7634218,20.6894062 69.8630554,20.3929532 70.8333333,19.8333333 C71.8095356,19.2947669 72.6163715,18.4948566 73.1633333,17.5233333 C73.7125153,16.522089 73.9916643,15.3951543 73.9733333,14.2533333 C74.0194011,12.5222158 73.3586829,10.8469522 72.1433333,9.61333333 C70.9699896,8.39773116 69.3424497,7.72714122 67.6533333,7.76333333 L67.6033333,7.76333333 Z" id="Shape"></path>
            </g>
            <g id="Kenza-Mascot">
                <path d="M8.73,15.21 C8.73,15.21 8.73,15.3 8.73,15.33 C8.53708014,15.5344302 8.32989284,15.7249088 8.11,15.9 C7.88533906,16.0789945 7.64426767,16.2363605 7.39,16.37 C7.12998528,16.5080707 6.85480628,16.6154576 6.57,16.69 C6.26985876,16.7698485 5.96058094,16.8101891 5.65,16.81 C5.33612992,16.8101526 5.02355106,16.7698198 4.72,16.69 C4.1551692,16.5445567 3.62713125,16.2822411 3.17,15.92 C2.95190349,15.7428205 2.74485012,15.552465 2.55,15.35 C2.51944272,15.3158359 2.51944272,15.2641641 2.55,15.23 L2.69,15 C2.69,15 2.69,15 2.74,15 L2.74,15 C3.12414126,15.3393904 3.56391403,15.6100198 4.04,15.8 C4.54582192,15.9660381 5.07870553,16.0339214 5.61,16 C6.14561869,16.0090456 6.67817516,15.9174594 7.18,15.73 C7.64532435,15.5617664 8.07828807,15.3148417 8.46,15 C8.46,15 8.53,15 8.55,15 L8.73,15.21 Z" id="Shape" fill="#ECDD7B"></path>
                <path d="M18.79,15.21 C18.79,15.21 18.79,15.3 18.79,15.33 C18.5971276,15.5344783 18.3899367,15.7249601 18.17,15.9 C17.9453741,16.079043 17.704298,16.2364121 17.45,16.37 C17.1899853,16.5080707 16.9148063,16.6154576 16.63,16.69 C16.3298588,16.7698485 16.0205809,16.8101891 15.71,16.81 C15.3961299,16.8101526 15.0835511,16.7698198 14.78,16.69 C14.2151692,16.5445567 13.6871313,16.2822411 13.23,15.92 C13.0119198,15.7428017 12.8048676,15.5524472 12.61,15.35 C12.5794427,15.3158359 12.5794427,15.2641641 12.61,15.23 L12.77,15 C12.77,15 12.77,15 12.82,15 L12.82,15 C13.2041413,15.3393904 13.643914,15.6100198 14.12,15.8 C14.605508,15.9835942 15.1209641,16.0751555 15.64,16.07 C16.175637,16.0792835 16.7082374,15.9876898 17.21,15.8 C17.6909208,15.6136704 18.1345895,15.3427277 18.52,15 C18.52,15 18.59,15 18.61,15 L18.79,15.21 Z" id="Shape" fill="#ECDD7B"></path>
                <polyline id="Shape" fill="#ECDD7B" points="13.55 27.1 10.55 33.59 7.54 27.1"></polyline>
                <path d="M3.09,25.63 L2.79,25.63 C2.90055891,24.7304096 3.32984231,23.9002252 4,23.29 C4.58152044,22.7172293 5.36378069,22.3942778 6.18,22.39 C6.65606306,22.4029877 7.12910383,22.4700857 7.59,22.59 C7.99844851,22.7005579 8.4174466,22.7675976 8.84,22.79 C9.28155532,22.7737484 9.69867389,22.5831684 10,22.26 C10.37933,21.8703724 10.6124703,21.3617028 10.66,20.82 L11,20.82 C11.0475297,21.3617028 11.28067,21.8703724 11.66,22.26 C11.9709283,22.5858372 12.399667,22.7731852 12.85,22.78 C13.2691922,22.7568992 13.6848021,22.6898653 14.09,22.58 C14.5541441,22.4593328 15.0305828,22.3922287 15.51,22.38 C16.3229649,22.3858212 17.1015502,22.7087368 17.68,23.28 C18.3352998,23.89526 18.7470932,24.7259469 18.84,25.62 L18.54,25.62 C18.4366125,25.0566459 18.160521,24.5394112 17.75,24.14 C17.4044027,23.8376204 16.9591646,23.6737728 16.5,23.68 C16.0641752,23.7012345 15.6317945,23.7682702 15.21,23.88 C14.7522688,23.9987511 14.2826722,24.0658363 13.81,24.08 C13.1867367,24.067777 12.5865849,23.8418375 12.11,23.44 C11.511459,22.9390155 11.0704363,22.2757452 10.84,21.53 C10.5911342,22.2715775 10.1410511,22.9293914 9.54,23.43 C9.06088028,23.8354626 8.45747545,24.0648271 7.83,24.08 C7.35396594,24.066669 6.88096379,23.9995765 6.42,23.88 C5.99501502,23.7672785 5.55921411,23.7002322 5.12,23.68 C4.66099737,23.6747161 4.21608541,23.8384437 3.87,24.14 C3.4607802,24.5430251 3.18802081,25.0640654 3.09,25.63 L3.09,25.63 Z" id="Shape" fill="#FFFFFF"></path>
                <polyline id="Shape" fill="#ECDD7B" points="0 10.71 10.71 0 21.42 10.71"></polyline>
            </g>
        </g>
    </g>
</svg>
